<svg width="512" height="512" viewBox="0 0 512 512" fill="none" xmlns="http://www.w3.org/2000/svg">
<g clip-path="url(#clip0_8_716)">
<rect width="512" height="512" rx="40" fill="#5768FF"/>
<path d="M155.499 59.4787C192.861 59.4787 211.542 75.6755 211.542 108.069V119.407C221.961 99.9707 235.433 84.1339 251.958 71.8963C268.484 59.2988 287.704 53 309.618 53C329.018 53 345.903 58.039 360.273 68.117C374.643 77.8351 385.6 91.5124 393.145 109.149C401.048 126.426 405 146.582 405 169.617C405 196.252 401.048 220.547 393.145 242.503C385.6 264.098 375.182 282.815 361.89 298.652C348.597 314.129 333.688 326.006 317.163 334.285C300.637 342.563 283.573 346.702 265.969 346.702C248.725 346.702 232.559 342.383 217.47 333.745C202.741 325.106 191.245 314.488 182.982 301.891L155.499 459H107L163.043 137.763C164.121 131.644 164.66 126.605 164.66 122.646C164.66 105.73 155.858 97.2713 138.255 97.2713L155.499 59.4787ZM261.658 303.511C278.543 303.511 293.991 298.112 308.002 287.314C322.372 276.156 333.868 260.859 342.49 241.423C351.112 221.987 355.423 199.671 355.423 174.476C355.423 150.001 349.855 130.745 338.718 116.707C327.581 102.31 313.031 95.1117 295.069 95.1117C280.699 95.1117 266.867 99.6108 253.575 108.609C240.642 117.607 229.505 130.205 220.165 146.402C210.824 162.598 204.178 181.675 200.226 203.63L190.526 258.16C198.43 272.557 208.668 283.715 221.242 291.633C233.816 299.551 247.288 303.511 261.658 303.511Z" fill="white"/>
<path fill-rule="evenodd" clip-rule="evenodd" d="M425 535C485.751 535 535 485.751 535 425C535 364.249 485.751 315 425 315C364.249 315 315 364.249 315 425C315 485.751 364.249 535 425 535ZM437.337 406.511L465.113 365.244C467.773 360.954 472.353 358.44 477.376 358.44C485.207 358.44 491.56 364.8 491.56 372.639V477.361C491.56 485.2 485.207 491.56 477.376 491.56H474.421C470.284 491.56 466.295 489.785 463.636 486.531L380.897 387.431C380.307 386.691 378.977 387.135 378.977 388.17V462.422C378.977 463.457 380.011 463.901 380.75 463.309L408.083 439.643C410.742 437.277 414.436 440.679 412.515 443.489L384.739 484.756C382.079 489.046 377.499 491.56 372.624 491.56C364.793 491.56 358.44 485.2 358.44 477.361V372.639C358.44 364.8 364.793 358.44 372.476 358.44H375.431C379.716 358.44 383.557 360.215 386.216 363.469L468.955 462.569C469.546 463.309 470.875 462.865 470.875 461.83V387.431C470.875 386.395 469.841 385.951 469.102 386.543L441.769 410.357C439.11 412.723 435.416 409.321 437.337 406.511Z" fill="white"/>
</g>
<defs>
<clipPath id="clip0_8_716">
<rect width="512" height="512" rx="40" fill="white"/>
</clipPath>
</defs>
</svg>
