<svg width="24" height="25" viewBox="0 0 24 25" fill="none" xmlns="http://www.w3.org/2000/svg">
<rect y="0.5" width="24" height="24" rx="12" fill="#384BFF"/>
<path d="M12.0003 4.16675C12.3131 4.16675 12.6214 4.18369 12.9253 4.21758C13.0341 4.22962 13.1394 4.26296 13.2353 4.31571C13.3312 4.36846 13.4158 4.43958 13.4842 4.52501C13.5526 4.61044 13.6035 4.70851 13.634 4.81361C13.6645 4.91872 13.674 5.0288 13.662 5.13758C13.65 5.24636 13.6166 5.3517 13.5639 5.44759C13.5111 5.54348 13.44 5.62805 13.3546 5.69645C13.2691 5.76486 13.1711 5.81577 13.066 5.84627C12.9609 5.87678 12.8508 5.88629 12.742 5.87425C11.3687 5.72062 9.9816 5.99753 8.77255 6.66668C7.56351 7.33584 6.59229 8.36416 5.99321 9.60941C5.39414 10.8547 5.19683 12.2553 5.42857 13.6176C5.66031 14.9799 6.30965 16.2365 7.28678 17.2136C8.2639 18.1908 9.52052 18.8401 10.8828 19.0718C12.2451 19.3036 13.6457 19.1063 14.891 18.5072C16.1362 17.9081 17.1646 16.9369 17.8337 15.7279C18.5029 14.5188 18.7798 13.1317 18.6262 11.7584C18.6141 11.6496 18.6236 11.5396 18.6541 11.4344C18.6846 11.3293 18.7355 11.2313 18.804 11.1458C18.9421 10.9733 19.1431 10.8627 19.3628 10.8384C19.5825 10.8141 19.8029 10.8781 19.9754 11.0162C20.0608 11.0846 20.1319 11.1692 20.1847 11.2651C20.2374 11.361 20.2708 11.4663 20.2828 11.5751C20.3162 11.879 20.3331 12.1873 20.3337 12.5001C20.3337 17.1026 16.6028 20.8334 12.0003 20.8334C7.39783 20.8334 3.66699 17.1026 3.66699 12.5001C3.66699 7.89758 7.39783 4.16675 12.0003 4.16675ZM11.9737 9.06425C12.0286 9.27818 11.9963 9.50517 11.884 9.69534C11.7716 9.8855 11.5884 10.0233 11.3745 10.0784C10.7869 10.2323 10.2754 10.5948 9.93536 11.0982C9.59536 11.6015 9.45012 12.2114 9.52674 12.814C9.60337 13.4166 9.89662 13.9707 10.3518 14.373C10.8069 14.7752 11.3929 14.9981 12.0003 15.0001C12.5547 15.0003 13.0935 14.8162 13.5319 14.4768C13.9703 14.1374 14.2834 13.6619 14.422 13.1251C14.4811 12.9154 14.6199 12.7371 14.8088 12.6286C14.9977 12.52 15.2216 12.4897 15.4325 12.5442C15.6434 12.5986 15.8247 12.7336 15.9373 12.92C16.05 13.1065 16.0852 13.3297 16.0353 13.5417C15.7797 14.5217 15.176 15.375 14.3371 15.9424C13.4982 16.5097 12.4815 16.7523 11.4768 16.6247C10.4721 16.4971 9.54827 16.0081 8.87783 15.249C8.20739 14.49 7.83622 13.5128 7.83366 12.5001C7.83352 11.5762 8.14041 10.6785 8.70609 9.94814C9.27177 9.21774 10.0642 8.69604 10.9587 8.46508C11.0646 8.43776 11.175 8.43159 11.2834 8.44692C11.3917 8.46225 11.496 8.49878 11.5903 8.55442C11.6845 8.61005 11.7669 8.68372 11.8327 8.7712C11.8985 8.85867 11.9464 8.95825 11.9737 9.06425ZM17.4203 4.27258C17.5724 4.33565 17.7024 4.44236 17.794 4.57926C17.8855 4.71615 17.9344 4.87709 17.9345 5.04175V6.56675H19.4587C19.6235 6.56678 19.7845 6.61568 19.9215 6.70725C20.0585 6.79882 20.1653 6.92895 20.2284 7.0812C20.2914 7.23345 20.308 7.40098 20.2758 7.56261C20.2437 7.72424 20.1643 7.8727 20.0478 7.98925L17.1003 10.9334C16.9441 11.0897 16.7322 11.1775 16.5112 11.1776H14.5003L12.977 12.7017C12.8206 12.8581 12.6085 12.946 12.3874 12.946C12.1663 12.946 11.9542 12.8581 11.7978 12.7017C11.6415 12.5454 11.5536 12.3333 11.5536 12.1122C11.5536 11.891 11.6415 11.6789 11.7978 11.5226L13.322 10.0001V7.98841C13.322 7.76742 13.4099 7.55549 13.5662 7.39925L16.512 4.45258C16.6285 4.33597 16.777 4.25655 16.9387 4.22436C17.1004 4.19217 17.268 4.20866 17.4203 4.27175M16.2678 7.05258L14.9887 8.33341V9.51175H16.167L17.447 8.23258H17.1012C16.8801 8.23258 16.6682 8.14478 16.5119 7.9885C16.3556 7.83222 16.2678 7.62026 16.2678 7.39925V7.05258Z" fill="white"/>
</svg>
