<svg width="512" height="512" viewBox="0 0 512 512" fill="none" xmlns="http://www.w3.org/2000/svg">
<rect width="512" height="512" fill="#384BFF"/>
<path d="M277.091 233.162V214.675C282.891 212.137 288.824 210.234 294.892 208.966C300.959 207.697 307.328 207.062 314 207.062C318.57 207.062 323.051 207.425 327.445 208.15C331.839 208.875 336.145 209.781 340.364 210.869V228.269C336.145 226.637 331.882 225.416 327.572 224.604C323.262 223.792 318.738 223.382 314 223.375C307.321 223.375 300.906 224.238 294.755 225.963C288.603 227.689 282.715 230.088 277.091 233.162ZM277.091 292.975V274.487C282.891 271.95 288.824 270.047 294.892 268.778C300.959 267.509 307.328 266.875 314 266.875C318.57 266.875 323.051 267.238 327.445 267.963C331.839 268.688 336.145 269.594 340.364 270.681V288.081C336.145 286.45 331.882 285.225 327.572 284.406C323.262 283.586 318.738 283.18 314 283.188C307.321 283.188 300.906 284.003 294.755 285.634C288.603 287.266 282.715 289.712 277.091 292.975ZM277.091 263.069V244.581C282.891 242.044 288.824 240.141 294.892 238.872C300.959 237.603 307.328 236.969 314 236.969C318.57 236.969 323.051 237.331 327.445 238.056C331.839 238.781 336.145 239.688 340.364 240.775V258.175C336.145 256.544 331.882 255.319 327.572 254.499C323.262 253.68 318.738 253.274 314 253.281C307.321 253.281 300.906 254.144 294.755 255.869C288.603 257.595 282.715 259.995 277.091 263.069ZM198 299.5C206.261 299.5 214.303 300.453 222.128 302.36C229.953 304.267 237.728 307.12 245.455 310.919V203.8C238.248 199.45 230.603 196.188 222.518 194.013C214.433 191.838 206.261 190.75 198 190.75C191.673 190.75 185.388 191.384 179.145 192.653C172.902 193.922 166.884 195.825 161.091 198.362V306.025C167.242 303.85 173.352 302.219 179.419 301.131C185.486 300.044 191.68 299.5 198 299.5ZM266.545 310.919C274.279 307.112 282.058 304.26 289.883 302.36C297.707 300.461 305.746 299.507 314 299.5C320.327 299.5 326.524 300.044 332.592 301.131C338.659 302.219 344.765 303.85 350.909 306.025V198.362C345.109 195.825 339.088 193.922 332.845 192.653C326.602 191.384 320.32 190.75 314 190.75C305.739 190.75 297.567 191.838 289.482 194.013C281.397 196.188 273.751 199.45 266.545 203.8V310.919ZM256 343C247.564 336.113 238.424 330.766 228.582 326.959C218.739 323.153 208.545 321.25 198 321.25C190.618 321.25 183.37 322.247 176.255 324.241C169.141 326.234 162.328 329.044 155.818 332.669C152.127 334.662 148.57 334.572 145.146 332.397C141.722 330.222 140.007 327.05 140 322.881V191.837C140 189.844 140.485 187.941 141.455 186.128C142.425 184.316 143.874 182.956 145.8 182.05C153.885 177.7 162.321 174.438 171.109 172.263C179.897 170.088 188.861 169 198 169C208.194 169 218.17 170.359 227.928 173.078C237.686 175.797 247.043 179.875 256 185.312C264.964 179.875 274.324 175.797 284.083 173.078C293.841 170.359 303.813 169 314 169C323.139 169 332.103 170.088 340.891 172.263C349.679 174.438 358.115 177.7 366.2 182.05C368.133 182.956 369.585 184.316 370.555 186.128C371.525 187.941 372.007 189.844 372 191.837V322.881C372 327.05 370.288 330.222 366.864 332.397C363.441 334.572 359.88 334.662 356.182 332.669C349.679 329.044 342.87 326.234 335.755 324.241C328.641 322.247 321.389 321.25 314 321.25C303.454 321.25 293.261 323.153 283.418 326.959C273.576 330.766 264.436 336.113 256 343Z" fill="white"/>
</svg>
